<svg xmlns="http://www.w3.org/2000/svg" version="1.1" xmlns:xlink="http://www.w3.org/1999/xlink" xmlns:svgjs="http://svgjs.dev/svgjs" width="1440" height="560" preserveAspectRatio="none" viewBox="0 0 1440 560"><g mask="url(&quot;#SvgjsMask1113&quot;)" fill="none"><rect width="1440" height="560" x="0" y="0" fill="url(&quot;#SvgjsLinearGradient1114&quot;)"></rect><path d="M 0,196 C 57.6,176.8 172.8,110.4 288,100 C 403.2,89.6 460.8,148.4 576,144 C 691.2,139.6 748.8,56.2 864,78 C 979.2,99.8 1036.8,253.8 1152,253 C 1267.2,252.2 1382.4,109.8 1440,74L1440 560L0 560z" fill="#184a7e"></path><path d="M 0,550 C 48,516 144,393.8 240,380 C 336,366.2 384,495 480,481 C 576,467 624,299.4 720,310 C 816,320.6 864,528.2 960,534 C 1056,539.8 1104,348 1200,339 C 1296,330 1392,459 1440,489L1440 560L0 560z" fill="#2264ab"></path></g><defs><mask id="SvgjsMask1113"><rect width="1440" height="560" fill="#ffffff"></rect></mask><linearGradient x1="15.28%" y1="-39.29%" x2="84.72%" y2="139.29%" gradientUnits="userSpaceOnUse" id="SvgjsLinearGradient1114"><stop stop-color="#0e2a47" offset="0"></stop><stop stop-color="#00459e" offset="1"></stop></linearGradient></defs></svg>                                